<?xml version="1.0" encoding="UTF-8" standalone="no"?>
<!DOCTYPE svg PUBLIC "-//W3C//DTD SVG 1.1//EN" "http://www.w3.org/Graphics/SVG/1.1/DTD/svg11.dtd">
<svg width="100%" height="100%" viewBox="0 0 760 789" version="1.1" xmlns="http://www.w3.org/2000/svg" xmlns:xlink="http://www.w3.org/1999/xlink" xml:space="preserve" xmlns:serif="http://www.serif.com/" style="fill-rule:evenodd;clip-rule:evenodd;stroke-linejoin:round;stroke-miterlimit:2;">
    <g transform="matrix(1,0,0,1,-1029.059437,-211.64192)">
        <g id="Background" transform="matrix(2.75,0,0,2.75,0,0)">
            <path d="M434.321,126.691C435.927,128.802 444.927,140.638 458.763,149.093C504.218,176.872 578.101,162.066 572.082,208.597C569.611,227.698 587.421,182.918 548.415,169.764C517.606,159.374 507.964,171.628 492.461,140.512C487.808,131.171 498.174,143.348 502.82,147.145C505.929,149.686 521.869,158.994 522.367,158.055C524.077,154.829 493.498,146.061 488.93,110.48C487.766,101.409 493.56,113.938 495.807,117.274C521.387,155.254 558.882,143.6 573.747,179.384C576.299,185.526 583.343,162.602 601.503,161.572C610.577,161.058 616.441,168.128 617.552,168.257C618.29,168.342 629.782,169.678 626.34,171.241C609.603,178.841 611.781,188.21 608.856,204.57C598.097,264.736 534.213,235.618 505.967,292.732C499.119,306.578 497.933,332.081 497.696,315.476C497.264,285.2 506.781,273.455 516.428,262.392C516.434,262.385 518.896,258.754 517.509,259.431C516.526,260.174 515.542,260.918 514.559,261.662C492.192,276.034 448.654,276.453 448.654,276.453C451.922,272.47 499.918,279.928 541.995,222.856C548.156,214.499 533.469,222.238 533.429,218.511C533.426,218.227 551.153,210.151 546.5,208.473C542.64,207.081 540.068,219.947 512.522,212.473C507.677,211.159 540.264,207.535 537.386,202.831C530.313,204.249 530.536,204.552 523.416,206.009C496.031,211.615 471.406,193.183 480.464,195.936C500.655,202.072 510.967,197.205 528.609,196.91C570.064,196.218 508.069,195.695 493.472,193.695C461.044,189.25 441.058,158.858 449.546,165.358C468.406,179.802 485.34,181.477 506.545,184.214C528.147,187.002 535.389,189.916 530.254,186.815C511.122,175.259 450.974,187.891 432.611,127.512C432.938,127.122 432.874,127.257 434.321,126.691Z" style="fill:rgb(17,82,115);"/>
            <path d="M513.839,242.895C506.93,248.216 454.132,288.88 404.871,240.142C355.323,191.12 404.115,121.381 410.494,121.572C414.876,121.703 401.195,129.66 397.999,158.562C389.315,237.1 475.11,269.804 521.254,233.05C564.185,198.857 514.589,242.255 513.839,242.895Z" style="fill:rgb(25,92,140);"/>
            <path d="M422.024,116.078C427.777,109.459 435.782,98.504 459.467,87.433C467.07,83.879 487.791,77.788 492.5,77.5C519.009,75.884 483.022,77.078 461.626,92.683C434.853,112.209 437.304,125.203 432.986,118.097C429.329,112.077 428.424,122.676 428.322,123.483C427.175,132.608 428.166,132.693 425.34,141.446C416.154,169.905 423.612,201.36 441.727,219.266C469.267,246.489 500.098,235.23 503.292,235.678L503.578,236.544C502.334,237.214 502.44,237.175 502.334,237.214C435.466,261.723 371.048,187.898 422.024,116.078Z" style="fill:rgb(33,118,161);"/>
            <path d="M629.611,251.754C637.457,230.792 601.675,236.771 609.81,249.413C614.315,256.414 604.262,249.91 604.452,241.499C605.147,210.756 659.535,222.877 645.091,258.328C630.626,293.832 579.903,266.133 550.413,277.281C510.737,292.28 514.085,327.844 511.439,330.651C509.353,325.054 509.898,299.714 523.816,282.765C560.014,238.686 617.542,283.998 629.611,251.754Z" style="fill:rgb(35,126,167);"/>
            <path d="M617.392,309.546C604.779,285.415 604.209,283.421 606.5,283.505C612.762,283.732 612.283,285.61 629.802,318.336C633.467,325.182 638.393,329.464 630.522,329.126C622.35,328.775 561.157,326.149 530.837,351.875C529.855,352.709 526.707,363.627 512.503,363.849C497.254,364.088 496.176,352.938 489.232,348.873C439.955,320.027 387.529,332.437 389.53,327.51C389.542,327.478 416.31,276.387 418.943,271.822C419.196,271.383 430.616,262.551 423.923,275.734C418.946,285.535 419.15,285.449 414.096,295.276C410.187,302.876 410.154,302.65 406.234,310.383C405.63,311.604 405.499,311.389 404.86,312.679C404.638,313.126 404.662,313.097 402.197,318.321C400.394,325.743 406.962,318.893 439.422,323.966C487.888,331.542 497.982,346.682 500.968,351.161C505.732,358.306 519.291,357.689 523.025,351.16C524.374,348.801 528.15,342.198 551.654,332.855C579.076,321.955 614.925,321.882 620.503,321.87C624.572,321.535 621.697,319.494 617.392,309.546Z" style="fill:rgb(16,75,120);"/>
            <path d="M617.392,309.546C621.697,319.494 624.572,321.535 620.503,321.87C614.925,321.882 579.076,321.955 551.654,332.855C528.15,342.198 524.374,348.801 523.025,351.16C519.291,357.689 505.732,358.306 500.968,351.161C497.982,346.682 487.888,331.542 439.422,323.966C406.962,318.893 400.394,325.743 402.197,318.321C404.662,313.097 404.638,313.126 404.86,312.679C405.499,311.389 405.63,311.604 406.234,310.383C415.064,311.166 467.621,311.81 500.373,338.855C500.772,339.185 500.743,339.327 503.681,341.975C505.334,343.465 505.475,343.418 506.667,344.219C508.318,345.329 508.803,345.562 509.757,345.915C510.367,346.141 512.235,346.371 512.388,346.337C514.573,345.86 515.67,344.82 516.732,344.093C517.541,343.54 517.904,343.196 519.081,342.271C520.178,341.408 521.826,340.295 523.633,338.871C564.086,306.972 615.086,313.675 617.392,309.546Z" style="fill:rgb(204,220,225);"/>
            <path d="M441.333,127.646C438.116,123.526 439.791,123.066 442.889,118.787C444.275,116.871 451.621,106.724 463.774,97.872C549.536,35.41 645.089,152.153 598.691,111.208C576.029,91.209 525.798,74.442 478.61,99.728C447.727,116.277 447.939,132.815 441.333,127.646Z" style="fill:rgb(34,132,170);"/>
            <path d="M612.609,175.181C611.952,180.976 608.842,179.526 606.845,185.615C599.983,206.545 605.163,232.463 556.405,246.174C556.285,246.207 550.5,246.857 534.463,254.104C534.216,253.618 534.711,254.591 534.463,254.104C545.453,245.851 545.82,246.559 557.574,239.603C564.587,234.669 564.384,234.747 570.833,228.811C594.859,202.09 580.945,188.526 612.609,175.181Z" style="fill:rgb(216,234,228);"/>
            <path d="M376.596,189.844C378.499,191.236 374.376,192.698 383.546,218.483C387.945,230.853 381.953,243.994 405.497,283.502C406.065,284.454 406.435,285.074 400.122,296.272C397.583,300.775 379.998,270.6 375.222,240.55C372.646,224.34 375.769,190.622 375.769,190.622C375.769,190.622 375.824,190.18 376.029,189.988C376.238,189.791 376.502,189.785 376.596,189.844Z" style="fill:rgb(20,83,130);"/>
            <path d="M506.36,341.975C473.635,306.866 428.252,306.222 416.537,305.362C413.229,305.119 415.491,302.904 433.904,267.716C434.99,265.64 443.392,263.315 439.366,271.428C427.455,295.428 427.251,295.302 426.329,297.44C422.195,307.022 462.546,287.7 508.402,341.545C508.91,342.142 508.715,344.502 506.36,341.975Z" style="fill:rgb(32,119,162);"/>
            <path d="M519.308,340.32C517.722,341.855 512.778,345.296 515.445,341.886C554.843,295.853 585.063,304.778 597.331,299.196C598.714,298.566 588.971,281.672 591.524,281.701C599.273,281.79 600.623,288.103 606.842,300.321C611.322,309.121 601.979,302.971 574.429,310.188C542.793,318.475 532.125,327.799 519.308,340.32Z" style="fill:rgb(42,136,159);"/>
            <path d="M650.154,227.463C649.316,232.034 649.607,233.515 648.568,232.395C639.298,222.395 641.012,221.23 641.499,207.5C643.226,158.755 612.156,121.065 626.207,138.847C652.652,172.315 650.486,220.127 650.154,227.463Z" style="fill:rgb(35,131,143);"/>
            <path d="M525.405,304.513C537.324,278.006 585.044,279.087 584.664,287.536C584.355,294.422 546.862,279.07 526.468,305.418L525.405,304.513Z" style="fill:rgb(65,137,137);"/>
            <path d="M458.412,221.598C470.191,229.355 471.228,229.456 470.329,230.215C468.301,231.929 430.968,214.434 434.983,184.558C435.075,183.874 436.65,172.153 438.347,176.604C445.099,194.323 437.856,200.903 458.412,221.598Z" style="fill:rgb(78,153,142);"/>
            <path d="M436.782,335.947C457.441,336.165 524.57,370.664 466.533,351.407C454.993,347.578 437.668,338.579 436.782,335.947Z" style="fill:rgb(18,57,102);"/>
            <path d="M546.394,355.096C536.77,356.93 529.564,360.789 534.572,355.548C543.93,345.756 601.787,329.519 583.942,338.979C565.726,348.636 565.95,348.829 546.394,355.096Z" style="fill:rgb(18,82,125);"/>
            <path d="M621.38,291.571C618.352,284.649 617.605,284.384 618.697,283.735C620.027,282.944 620.96,285.243 636.449,276.042C641.705,272.92 627.674,295.813 626.396,297.383C626.009,297.859 625.093,298.332 621.38,291.571Z" style="fill:rgb(26,109,141);"/>
            <path d="M419.471,259.565C419.907,259.715 435.824,265.184 423.514,263.666C402.566,261.085 398.139,251.96 393.646,240.486C391.824,235.831 396.567,240.991 396.739,241.177C406.769,252.087 407.164,251.484 419.471,259.565Z" style="fill:rgb(81,154,133);"/>
            <path d="M575.555,253.694C596.383,248.539 595.816,237.933 598.392,241.556C603.395,248.592 573.951,261.36 573.322,254.397C574.066,254.162 574.811,253.928 575.555,253.694Z" style="fill:rgb(85,158,129);"/>
            <g transform="matrix(1,0,0,1,-1.738354,3.476712)">
                <path d="M428.251,169.337C428.043,170.708 426.072,168.696 426.766,163.496C426.987,161.835 429.188,145.347 430.958,142.972C443.311,126.402 431.342,148.98 428.251,169.337Z" style="fill:rgb(31,86,127);"/>
            </g>
            <path d="M604.641,172.757C604.346,172.918 598.717,171.607 602.63,168.72C604.544,167.309 609.611,170.042 604.641,172.757Z" style="fill:rgb(241,249,246);"/>
            <path d="M434.321,126.691C432.874,127.257 432.938,127.122 432.611,127.512C433.099,126.409 433.188,126.58 434.321,126.691Z" style="fill:rgb(129,137,148);"/>
            <path d="M525.405,304.513L526.468,305.418C525.547,305.476 525.507,305.484 525.405,304.513Z" style="fill:rgb(196,210,215);"/>
            <path d="M517.509,259.431C518.492,258.687 515.542,260.918 514.559,261.662C515.542,260.918 516.526,260.174 517.509,259.431Z" style="fill:rgb(60,92,125);"/>
            <path d="M575.555,253.694C574.811,253.928 574.066,254.162 573.322,254.397C574.066,254.162 574.811,253.928 575.555,253.694Z" style="fill:rgb(196,214,215);"/>
        </g>
    </g>
</svg>
